<svg id="Artboard_1" data-name="Artboard 1" xmlns="http://www.w3.org/2000/svg" viewBox="0 0 729.08 68.33"><defs><style>.cls-1{fill:#12171b;}</style></defs><title>Loader</title><path class="cls-1" d="M726,32.78a3.12,3.12,0,0,0-3.07,2.63H487l7.19-10.84H653a3.12,3.12,0,1,0,0-1H493.68l-7.85,11.84H412.92l10.76-14.36H453.8l6.13,4.07h15.65a3.13,3.13,0,1,0,0-1H460.23l-6.13-4.07H423.18L411.67,35.41H348.55l19.29-17.92h34.91L421.42,5.23a3.11,3.11,0,1,0-.83-2.11,3,3,0,0,0,.28,1.28L402.45,16.49h-35L347.08,35.41H0v1H323.45L336.05,48l25.19,3.35,14.64,14.17.34-.36v.5H542.16a3.12,3.12,0,1,0,0-1H376.43L361.7,50.44l-25.2-3.35L324.93,36.41H367l22.23,20.85h255a3.13,3.13,0,1,0,0-1H389.6l-11-10.3H491.09a3.13,3.13,0,1,0,0-1H377.56l-9.12-8.55H722.88A3.12,3.12,0,1,0,726,32.78Z"/></svg>