<svg xmlns="http://www.w3.org/2000/svg" xmlns:xlink="http://www.w3.org/1999/xlink" viewBox="0 0 64.498 64.497">
  <defs>
    <style>
      .cls-1 {
        fill: none;
        stroke: #fff;
      }

      .cls-2 {
        fill: #fff;
      }

      .cls-3 {
        filter: url(#arrow-right);
      }

      .cls-4 {
        filter: url(#Rectangle_497);
      }
    </style>
    <filter id="Rectangle_497" x="0" y="0" width="64.498" height="64.497" filterUnits="userSpaceOnUse">
      <feOffset input="SourceAlpha"/>
      <feGaussianBlur stdDeviation="2.5" result="blur"/>
      <feFlood flood-color="#fff" flood-opacity="0.8"/>
      <feComposite operator="in" in2="blur"/>
      <feComposite in="SourceGraphic"/>
    </filter>
    <filter id="arrow-right" x="15.749" y="18.749" width="33.501" height="27.998" filterUnits="userSpaceOnUse">
      <feOffset input="SourceAlpha"/>
      <feGaussianBlur stdDeviation="2.5" result="blur-2"/>
      <feFlood flood-color="#fff" flood-opacity="0.8"/>
      <feComposite operator="in" in2="blur-2"/>
      <feComposite in="SourceGraphic"/>
    </filter>
  </defs>
  <g id="Groupe_46" data-name="Groupe 46" transform="translate(8.207 8.207)">
    <g class="cls-4" transform="matrix(1, 0, 0, 1, -8.21, -8.21)">
      <rect id="Rectangle_497-2" data-name="Rectangle 497" class="cls-1" width="34" height="34" transform="translate(32.25 8.21) rotate(45)"/>
    </g>
    <g class="cls-3" transform="matrix(1, 0, 0, 1, -8.21, -8.21)">
      <path id="arrow-right-2" data-name="arrow-right" class="cls-2" d="M19.354,10.146l-6-6a.5.5,0,0,0-.707.707L17.793,10H1.5a.5.5,0,0,0,0,1H17.793l-5.146,5.146a.5.5,0,0,0,.708.707l6-6a.5.5,0,0,0,0-.707Z" transform="translate(22.25 22.25)"/>
    </g>
  </g>
</svg>
